<?xml version="1.0" encoding="UTF-8" standalone="no"?>
<svg
   xmlns:dc="http://purl.org/dc/elements/1.1/"
   xmlns:cc="http://creativecommons.org/ns#"
   xmlns:rdf="http://www.w3.org/1999/02/22-rdf-syntax-ns#"
   xmlns:svg="http://www.w3.org/2000/svg"
   xmlns="http://www.w3.org/2000/svg"
   xmlns:sodipodi="http://sodipodi.sourceforge.net/DTD/sodipodi-0.dtd"
   xmlns:inkscape="http://www.inkscape.org/namespaces/inkscape"
   id="Capa_1"
   enable-background="new 0 0 512 512"
   height="512"
   viewBox="0 0 512 512"
   width="512"
   version="1.1"
   sodipodi:docname="ziele.svg"
   inkscape:version="1.0.2-2 (e86c870879, 2021-01-15)">
  <metadata
     id="metadata11">
    <rdf:RDF>
      <cc:Work
         rdf:about="">
        <dc:format>image/svg+xml</dc:format>
        <dc:type
           rdf:resource="http://purl.org/dc/dcmitype/StillImage" />
      </cc:Work>
    </rdf:RDF>
  </metadata>
  <defs
     id="defs9" />
  <sodipodi:namedview
     pagecolor="#ffffff"
     bordercolor="#666666"
     borderopacity="1"
     objecttolerance="10"
     gridtolerance="10"
     guidetolerance="10"
     inkscape:pageopacity="0"
     inkscape:pageshadow="2"
     inkscape:window-width="2560"
     inkscape:window-height="1377"
     id="namedview7"
     showgrid="false"
     inkscape:zoom="1.96875"
     inkscape:cx="256"
     inkscape:cy="256"
     inkscape:window-x="2552"
     inkscape:window-y="-8"
     inkscape:window-maximized="1"
     inkscape:current-layer="Capa_1" />
  <path
     d="m 504.485,472.543 h -34.537 v -35.864 c 0,-4.15 -3.364,-7.515 -7.515,-7.515 -4.151,0 -7.515,3.365 -7.515,7.515 v 35.864 H 387.374 V 170.501 c 0,-1.381 1.124,-2.505 2.505,-2.505 h 62.534 c 1.381,0 2.505,1.124 2.505,2.505 v 236.12 c 0,4.15 3.365,7.515 7.515,7.515 4.15,0 7.515,-3.365 7.515,-7.515 v -236.12 c 0,-9.668 -7.866,-17.534 -17.534,-17.534 h -23.753 v -42.518 h 74.667 c 5.682,0.178 9.526,-6.663 6.418,-11.423 l -15.521,-25.491 15.521,-25.49 c 3.108,-4.761 -0.737,-11.601 -6.418,-11.423 h -74.667 v -4.679 c 0,-4.15 -3.364,-7.515 -7.515,-7.515 -4.15,0 -7.515,3.365 -7.515,7.515 V 152.967 H 389.88 c -9.668,0 -17.534,7.866 -17.534,17.534 v 37.355 c -0.82,-0.118 -1.652,-0.2 -2.505,-0.2 h -62.534 c -9.668,0 -17.534,7.866 -17.534,17.534 v 37.355 c -0.82,-0.118 -1.652,-0.2 -2.505,-0.2 h -62.534 c -9.668,0 -17.534,7.866 -17.534,17.534 v 37.355 c -0.82,-0.118 -1.652,-0.2 -2.505,-0.2 H 142.16 c -9.668,0 -17.534,7.866 -17.534,17.534 v 37.355 c -0.82,-0.118 -1.652,-0.2 -2.505,-0.2 H 59.586 c -9.668,0 -17.534,7.866 -17.534,17.534 v 83.287 H 7.515 c -4.15,0 -7.515,3.364 -7.515,7.515 0,4.15 3.365,7.515 7.515,7.515 h 496.971 c 4.15,0 7.515,-3.365 7.515,-7.515 -10e-4,-4.151 -3.366,-7.516 -7.516,-7.516 z M 489.954,51.651 479.009,69.626 c -1.462,2.401 -1.462,5.416 0,7.817 l 10.946,17.976 H 428.661 V 51.651 Z M 222.228,279.878 c 0,-1.381 1.124,-2.505 2.505,-2.505 h 62.534 c 1.381,0 2.505,1.124 2.505,2.505 v 59.664 c 0,4.15 3.365,7.515 7.515,7.515 4.15,0 7.515,-3.365 7.515,-7.515 V 225.189 c 0,-1.381 1.124,-2.505 2.505,-2.505 h 62.534 c 1.381,0 2.505,1.124 2.505,2.505 V 472.543 H 304.802 V 369.601 c 0,-4.15 -3.365,-7.515 -7.515,-7.515 -4.15,0 -7.515,3.365 -7.515,7.515 V 472.543 H 222.228 Z M 57.081,389.256 c 0,-1.381 1.124,-2.505 2.505,-2.505 h 62.534 c 1.381,0 2.505,1.124 2.505,2.505 v 25.362 c 0,4.15 3.365,7.515 7.515,7.515 4.15,0 7.515,-3.365 7.515,-7.515 v -80.05 c 0,-1.381 1.124,-2.505 2.505,-2.505 h 62.534 c 1.381,0 2.505,1.124 2.505,2.505 v 137.976 h -67.544 v -27.867 c 0,-4.15 -3.365,-7.515 -7.515,-7.515 -4.15,0 -7.515,3.365 -7.515,7.515 v 27.867 H 57.081 Z"
     id="path2"
     style="stroke:#ffffff;stroke-opacity:1;fill:#ffffff;fill-opacity:1;stroke-width:1;stroke-miterlimit:4;stroke-dasharray:none" />
</svg>
